<svg width="24" height="24" viewBox="0 0 24 24" fill="none" xmlns="http://www.w3.org/2000/svg">
<path d="M6.91572 18.3277C5.70792 18.1999 4.8976 17.8789 3.91245 17.1385C3.15737 16.5707 2.44973 15.6266 2.06042 14.6673C1.85676 14.1656 1.75016 13.6299 1.74628 13.0886L1.72369 9.94293C1.69199 5.56237 1.71002 5.38071 2.29124 4.17993C2.49605 3.75722 2.81665 3.33716 3.30998 2.84515C4.10644 2.05115 4.64191 1.71575 5.66009 1.37256C6.3364 1.1446 6.36829 1.14288 10.2195 1.14288C14.4713 1.14288 14.701 1.16642 15.7997 1.7167C17.1073 2.37156 18.0706 3.45768 18.5757 4.84637C18.7465 5.31612 18.8362 5.81143 18.8412 6.31121L18.8652 8.71178C18.8929 11.4854 18.8792 11.8675 18.7524 11.8675C18.534 11.8675 17.0739 11.3221 16.7277 11.1112C16.5601 11.0093 16.327 10.7426 16.2091 10.5186C16.0142 10.1474 15.9897 9.93458 15.9325 8.0964C15.8722 6.16237 15.8593 6.05968 15.6133 5.55667C15.3331 4.98399 14.9878 4.67307 14.2891 4.36405C13.8525 4.17082 13.6923 4.16266 10.2574 4.16001C6.75096 4.15716 6.67048 4.16152 6.18208 4.37165C5.88217 4.50054 5.53671 4.75299 5.31462 5.00506C4.66583 5.7423 4.64685 5.87556 4.64685 9.69806C4.64685 13.5916 4.67437 13.7611 5.42889 14.4996C6.14886 15.2046 6.50989 15.3028 8.62975 15.37C10.7454 15.4371 10.9007 15.4856 11.3956 16.2315C11.6706 16.6463 12.2161 18.1862 12.1218 18.2808C12.0362 18.3662 7.65372 18.4059 6.91572 18.3277Z" fill="#FF6333" stroke="#FF6333" stroke-width="0.640628"/>
<path d="M14.6336 22.2438C14.4337 22.1635 14.2217 21.6631 13.795 20.2668C13.5717 19.5361 13.2153 18.3829 13.0025 17.7043C12.3472 15.6141 11.48 12.4259 11.48 12.1078C11.48 11.5786 12.1701 11.1341 12.8077 11.2525C12.9909 11.2865 14.8919 11.8263 17.0321 12.4521C19.1723 13.078 21.2059 13.6725 21.5516 13.7731C22.4134 14.0242 22.6791 14.2474 22.6791 14.7202C22.6791 15.3533 22.3849 15.5645 20.3852 16.3692C19.4105 16.7613 18.413 17.1795 18.1685 17.2983L17.7236 17.5145L16.7863 19.6974C16.1741 21.1231 15.7643 21.9543 15.6049 22.0938C15.3735 22.2962 14.9327 22.3641 14.6336 22.2438Z" fill="white" stroke="white" stroke-width="0.640628"/>
</svg>
